<?xml version="1.0" encoding="UTF-8" standalone="no"?>
<svg
   xmlns:osb="http://www.openswatchbook.org/uri/2009/osb"
   xmlns:dc="http://purl.org/dc/elements/1.1/"
   xmlns:cc="http://creativecommons.org/ns#"
   xmlns:rdf="http://www.w3.org/1999/02/22-rdf-syntax-ns#"
   xmlns:svg="http://www.w3.org/2000/svg"
   xmlns="http://www.w3.org/2000/svg"
   xmlns:sodipodi="http://sodipodi.sourceforge.net/DTD/sodipodi-0.dtd"
   xmlns:inkscape="http://www.inkscape.org/namespaces/inkscape"
   id="Layer_1"
   xml:space="preserve"
   height="50.68974"
   viewBox="150.97383 50.68975"
   width="50.97382"
   version="1.1"
   y="0px"
   x="0px"
   inkscape:version="0.91 r13725"
   sodipodi:docname="meteorito.svg"><metadata
   id="metadata25"><rdf:RDF><cc:Work
       rdf:about=""><dc:format>image/svg+xml</dc:format><dc:type
         rdf:resource="http://purl.org/dc/dcmitype/StillImage" /><dc:title /></cc:Work></rdf:RDF></metadata><defs
   id="defs23"><linearGradient
     id="linearGradient5605"
     osb:paint="solid"><stop
       style="stop-color:#000000;stop-opacity:1;"
       offset="0"
       id="stop5607" /></linearGradient><linearGradient
     id="linearGradient5599"
     osb:paint="solid"><stop
       style="stop-color:#ff0000;stop-opacity:1;"
       offset="0"
       id="stop5601" /></linearGradient></defs><sodipodi:namedview
   pagecolor="#ffffff"
   bordercolor="#666666"
   borderopacity="1"
   objecttolerance="10"
   gridtolerance="10"
   guidetolerance="10"
   inkscape:pageopacity="0"
   inkscape:pageshadow="2"
   inkscape:window-width="1366"
   inkscape:window-height="697"
   id="namedview21"
   showgrid="false"
   inkscape:zoom="2.8479729"
   inkscape:cx="123.695"
   inkscape:cy="42.790222"
   inkscape:window-x="-8"
   inkscape:window-y="-8"
   inkscape:window-maximized="1"
   inkscape:current-layer="Layer_1"
   fit-margin-top="0"
   fit-margin-left="0"
   fit-margin-right="0"
   fit-margin-bottom="0" />
<path
   style="fill:#ff6600;fill-opacity:1;stroke:none;stroke-width:0;stroke-miterlimit:4;stroke-dasharray:none;stroke-opacity:1"
   d="m 89.490038,117.63337 c -1.686797,-0.30871 -5.716817,-1.14671 -5.956764,-1.23867 -0.158524,-0.0608 -0.427191,-0.13602 -0.597032,-0.16724 -1.331713,-0.24492 -10.932173,-4.37548 -10.932173,-4.70351 0,-0.10398 -0.05476,-0.1387 -0.121754,-0.0772 -0.06699,0.0616 -1.645025,-0.59551 -3.506799,-1.46007 -2.205003,-1.02396 -5.19367,-2.19448 -8.573191,-3.35773 -6.665587,-2.29433 -6.244988,-2.13748 -6.244988,-2.32925 0,-0.091 -0.07932,-0.12049 -0.176349,-0.0655 -0.27687,0.15722 -2.74584,-0.71666 -5.684329,-2.01194 -2.954188,-1.3022 -4.773669,-2.281184 -6.53322,-3.515266 -1.54346,-1.082521 -7.205757,-6.196755 -7.205757,-6.50831 0,-0.135797 -0.07874,-0.2022 -0.174975,-0.147544 C 33.4138,92.260631 26.84904,84.96732 24.65369,81.909 23.48976,80.287586 17.572134,71.152728 16.432314,69.217969 16.124436,68.695362 15.454408,67.304988 14.943364,66.128251 13.584508,62.999328 9.8374569,54.868755 8.9575803,53.139932 8.5401091,52.319677 8.1825782,51.471315 8.1630665,51.254701 8.1435595,51.038086 8.0673885,50.895034 7.9938166,50.936819 c -0.073574,0.04179 -0.500955,-0.538761 -0.949735,-1.290076 -0.501081,-0.838882 -1.400803,-1.927147 -2.331479,-2.820057 -0.920019,-0.882685 -1.696945,-1.820297 -1.977244,-2.38617 -1.465663,-2.95892 -3.02299605,-10.347248 -2.68987405,-12.761318 0.067,-0.48553 0.497195,-1.955358 0.95599205,-3.266275 0.458796,-1.310914 1.027535,-3.051408 1.263867,-3.867767 0.40433,-1.396666 0.509658,-1.561627 1.784486,-2.794736 0.745139,-0.720759 2.742411,-2.271514 4.4383851,-3.446135 C 26.157321,4.3730692 33.957115,1.1832824 54.325946,0.14700596 c 9.027939,-0.4455591 18.12542,0.089293 34.875861,2.05021334 3.698953,0.4330343 7.503598,0.8732055 8.454749,0.9781655 6.512754,0.7186431 9.168244,1.7021901 16.566154,6.1358202 10.3124,6.1803 28.71307,17.50715 31.18397,19.19585 4.18472,2.859963 9.17379,6.555406 10.47407,7.758231 1.5141,1.400629 2.41199,2.48802 5.47104,6.625631 2.9382,3.974142 3.89414,5.098718 6.31468,7.428559 3.12575,3.00862 5.33631,5.824282 7.16837,9.130571 1.48391,2.678009 1.5826,3.137734 1.44795,6.744921 -0.0634,1.699724 -0.21592,4.48078 -0.33883,6.180115 -0.27271,3.770334 -0.13436,8.580119 0.38442,13.365326 0.3374,3.112339 0.3532,3.668603 0.12409,4.368114 -0.81012,2.473335 -4.59073,6.79206 -9.01241,10.295207 -2.68207,2.12493 -9.02963,6.54442 -9.85411,6.86096 -0.37141,0.14257 -2.72323,0.45318 -5.22632,0.69022 -6.21425,0.58849 -10.51812,1.04394 -16.75278,1.77277 -9.47602,1.10778 -12.61236,1.49948 -16.1814,2.02104 -2.08352,0.30445 -3.5404,0.44454 -3.57837,0.3441 -0.0353,-0.0932 -0.14841,-0.16945 -0.25153,-0.16945 -0.10306,0 -0.13789,0.0737 -0.0773,0.16385 0.14747,0.21923 -0.11551,0.27839 -3.31723,0.74628 -2.3912,0.34943 -2.77252,0.36807 -2.92741,0.14307 -0.15049,-0.21863 -0.17852,-0.21279 -0.18101,0.0379 -0.002,0.21972 -0.28893,0.34747 -1.10782,0.49356 -3.91962,0.69922 -5.91285,1.30014 -11.481167,3.46131 -1.658363,0.64365 -1.828014,0.67286 -4.131304,0.71161 -1.321056,0.0222 -2.618092,8.9e-4 -2.882294,-0.0475 z"
   id="path5736"
   inkscape:connector-curvature="0"
   sodipodi:nodetypes="ccsscssscssscsssssssssssssccssssssssssssscssscscsscssccc" /><path
   style="fill:#ff6600;fill-rule:evenodd;stroke:#000000;stroke-width:0;stroke-linecap:butt;stroke-linejoin:miter;stroke-miterlimit:4;stroke-dasharray:none;stroke-opacity:1"
   d="M 88.259161,2.0380516 430.71107,5.2073431 248.60111,35.026104 420.48091,27.191085 282.93998,51.704984 411.37864,62.386975 274.10999,68.056829 446.97383,89.482858 149.74945,107.84593 Z"
   id="path5633-0"
   inkscape:connector-curvature="0"
   sodipodi:nodetypes="cccccccccc" /><path
   style="fill:#ff0000;fill-rule:evenodd;stroke:#000000;stroke-width:0;stroke-linecap:butt;stroke-linejoin:miter;stroke-miterlimit:4;stroke-dasharray:none;stroke-opacity:1"
   d="m 62.898662,3.7287139 276.440058,8.7873221 -122.76951,22.796222 113.94385,1.996535 -81.36062,15.3846 84.89892,7.521849 -110.93413,12.341265 106.14973,14.052363 -174.58732,17.71376 z"
   id="path5633"
   inkscape:connector-curvature="0"
   sodipodi:nodetypes="cccccccccc" /><path
   style="fill:#ff0000;fill-opacity:1;stroke:none;stroke-width:0;stroke-miterlimit:4;stroke-dasharray:none;stroke-opacity:1"
   d="m 96.853828,113.73421 c -1.641741,-0.28852 -5.564113,-1.07171 -5.797651,-1.15767 -0.154289,-0.0568 -0.41578,-0.12712 -0.581082,-0.15631 -1.296144,-0.2289 -10.640162,-4.08931 -10.640162,-4.39589 0,-0.0972 -0.0533,-0.12963 -0.118501,-0.0722 -0.0652,0.0575 -1.601082,-0.55654 -3.413127,-1.36457 -2.146105,-0.95699 -5.054939,-2.05097 -8.34419,-3.13814 -6.487538,-2.14429 -6.078175,-1.99769 -6.078175,-2.17692 0,-0.085 -0.0772,-0.11261 -0.171638,-0.0611 -0.269475,0.14694 -2.672495,-0.66979 -5.532492,-1.880366 -2.875278,-1.217039 -4.646158,-2.132001 -6.35871,-3.285377 -1.502231,-1.011723 -7.013281,-5.791492 -7.013281,-6.08267 0,-0.126916 -0.07664,-0.188976 -0.1703,-0.137895 -0.359053,0.195794 -6.748458,-6.620542 -8.885168,-9.47885 -1.132838,-1.515464 -6.8924,-10.052911 -8.001768,-11.861137 -0.299656,-0.488431 -0.951784,-1.787873 -1.449186,-2.887654 -1.32255,-2.924294 -4.969512,-10.523134 -5.825895,-12.138893 -0.406313,-0.766612 -0.7543,-1.559492 -0.773283,-1.761939 -0.01897,-0.202448 -0.09316,-0.336144 -0.164732,-0.297092 -0.0716,0.03905 -0.487576,-0.503527 -0.924365,-1.205707 -0.487695,-0.784019 -1.36339,-1.801112 -2.269202,-2.635628 -0.895447,-0.824957 -1.651614,-1.701249 -1.92443,-2.230116 -1.42651,-2.765408 -2.9422504,-9.670545 -2.6180282,-11.926736 0.065205,-0.453778 0.4839212,-1.827481 0.9304562,-3.052664 0.446545,-1.225181 1.000094,-2.85185 1.230113,-3.614818 0.393531,-1.305326 0.496043,-1.459499 1.736821,-2.611964 0.725232,-0.673623 2.669154,-2.122958 4.31983,-3.220761 C 35.212818,7.8810345 42.804269,4.8998573 62.629019,3.9313525 c 8.786788,-0.4164199 17.641264,0.083453 33.944276,1.916131 3.600145,0.4047142 7.303165,0.8160985 8.228915,0.9141943 6.33879,0.6716443 8.92335,1.5908682 16.12365,5.7345422 10.03693,5.776113 27.94611,16.362196 30.35099,17.940456 4.07295,2.672925 8.92876,6.126689 10.19431,7.250849 1.47364,1.30903 2.34756,2.325305 5.32489,6.192321 2.85971,3.714237 3.79012,4.765265 6.146,6.942736 3.04226,2.81186 5.19377,5.44338 6.97689,8.53344 1.44429,2.502868 1.54034,2.932528 1.40928,6.303808 -0.0617,1.588564 -0.21015,4.187741 -0.32978,5.775941 -0.26541,3.523757 -0.13075,8.018986 0.37416,12.491246 0.32839,2.908793 0.34377,3.428677 0.12077,4.08244 -0.78849,2.311582 -4.4681,6.347866 -8.77167,9.621912 -2.61043,1.98596 -8.78844,6.116431 -9.59088,6.412261 -0.36151,0.13325 -2.65052,0.42355 -5.08673,0.64509 -6.04826,0.55 -10.23716,0.97565 -16.30529,1.65683 -9.22289,1.03532 -12.27547,1.40142 -15.74919,1.88885 -2.02786,0.28455 -3.44582,0.41548 -3.48278,0.32161 -0.0343,-0.087 -0.14445,-0.15837 -0.2448,-0.15837 -0.10039,0 -0.13421,0.0688 -0.0753,0.15314 0.14352,0.2049 -0.11243,0.26017 -3.22862,0.69746 -2.32733,0.32658 -2.69847,0.34401 -2.84921,0.13372 -0.14648,-0.20433 -0.17376,-0.19888 -0.17617,0.0354 -0.002,0.20536 -0.28122,0.32475 -1.07824,0.46128 -3.81491,0.65351 -5.75491,1.2151 -11.17449,3.23495 -1.61406,0.60155 -1.77918,0.62885 -4.020948,0.66508 -1.285768,0.0208 -2.548159,8.3e-4 -2.805302,-0.0444 z"
   id="path5736-9"
   inkscape:connector-curvature="0"
   sodipodi:nodetypes="ccsscssscssscsssssssssssssccssssssssssssscssscscsscssccc" /><path
   style="fill:#ffff00;fill-rule:evenodd;stroke:#000000;stroke-width:0;stroke-linecap:butt;stroke-linejoin:miter;stroke-miterlimit:4;stroke-dasharray:none;stroke-opacity:1"
   d="M 70.996166,17.883885 266.88782,16.137407 161.26119,34.36897 l 93.81848,11.476971 -80.10843,8.713188 89.81442,6.117333 -88.06292,12.692396 88.30959,10.541098 L 88.629322,95.30343 Z"
   id="path5633-9"
   inkscape:connector-curvature="0"
   sodipodi:nodetypes="cccccccccc" /><path
   style="fill:#8b8b8b;fill-rule:evenodd;stroke:none;stroke-width:1px;stroke-linecap:butt;stroke-linejoin:miter;stroke-opacity:1;fill-opacity:1"
   d="m 50.913406,7.084758 29.143536,-2.4578886 28.441278,3.5112694 57.93595,51.2645332 -3.51127,30.89917 -11.58719,13.342828 -46.69988,5.96915 -8.075922,2.80902 -7.373666,-1.40451 L 60.74496,99.431142 52.66904,94.515365 42.837486,84.332684 29.84579,63.967322 19.311982,40.441817 l 0,-14.396204 21.067616,-17.5563473 z"
   id="path4153"
   inkscape:connector-curvature="0" /><g
   id="g3"
   style="clip-rule:evenodd;fill-rule:evenodd"
   transform="translate(17.861454,3.7663601)">
	<path
   d="m 124.2,47.25 c 1.434,-0.267 2.233,-0.45 2.399,-0.55 0.167,-0.067 0.551,-0.467 1.15,-1.2 l 9.2,0.15 c -0.3,0.267 -1.517,0.617 -3.65,1.05 -2.3,0.466 -4.017,0.65 -5.149,0.55 l -0.2,-1.3 c -0.267,0.3 -0.917,0.733 -1.95,1.3 l -1.8,0 z M 114.95,44 c -0.434,-0.967 -1.084,-1.817 -1.95,-2.55 -1.1,-0.767 -1.95,-1.367 -2.55,-1.8 -1.134,-0.833 -1.917,-1.467 -2.351,-1.9 0.733,0.033 1.517,0 2.351,-0.1 1,0.1 2.416,0.934 4.25,2.5 1.733,1.533 2.866,2.85 3.399,3.95 -0.233,0.233 -0.383,0.4 -0.449,0.5 -0.101,0.133 -0.15,0.4 -0.15,0.8 0,0.5 0.2,0.95 0.6,1.35 -0.6,-0.3 -1.433,-0.733 -2.5,-1.3 -0.23,-0.133 -0.45,-0.617 -0.65,-1.45 z M 23.6,27.9 l -4.95,-4 c -0.167,-0.467 -0.533,-1.066 -1.1,-1.8 -0.7,-0.867 -1.1,-1.4 -1.2,-1.6 l -0.9,-1.05 c 0,-0.3 -0.15,-0.55 -0.45,-0.75 -0.3,-0.233 -0.667,-0.35 -1.1,-0.35 0.233,-1.067 0.983,-2.95 2.25,-5.65 1,-2.2 1.434,-3.9 1.3,-5.1 L 20.8,4.55 20.1,6.1 c -0.467,2.233 -1.5,6.35 -3.1,12.35 0,1.533 0.5,2.816 1.5,3.85 2.767,2.9 4.483,4.784 5.15,5.65 L 23.6,27.9 Z M 33.8,43 33.45,43 31.75,41.95 C 31.717,41.916 30.883,41.133 29.25,39.6 28.217,38.666 27.567,37.633 27.3,36.5 26.767,35.9 26.334,34.867 26,33.4 24.967,31.834 24.633,31.05 25,31.05 l 1.95,0.2 0,0.05 c 0.033,2.934 1.3,5.45 3.8,7.55 2.2,1.833 4.817,2.867 7.85,3.1 0.4,0.033 0.817,0.05 1.25,0.05 -0.233,0.233 -0.883,0.417 -1.95,0.55 -0.167,0.034 -0.316,0.067 -0.45,0.1 C 35.683,42.883 34.467,43 33.8,43 Z m 41.15,12.5 c -0.534,0.4 -1.25,0.6 -2.15,0.6 -1.367,0.134 -2.683,0.351 -3.95,0.65 -1.1,0.233 -2.434,0.4 -4,0.5 -1.2,0 -2.9,-0.3 -5.1,-0.9 -2.167,-0.433 -5.017,-0.683 -8.55,-0.75 l -1.6,0 C 47.033,54.433 45.5,53.683 45,53.35 43.8,52.583 42,51.05 39.6,48.75 L 39.5,48.6 39.4,48.25 c 2.7,0.733 5.117,1.767 7.25,3.1 1.867,1.133 3.184,1.75 3.95,1.85 2.2,0.267 8.566,0.466 19.1,0.6 l 4.55,-0.05 C 74.25,53.05 74.233,52.6 74.2,52.4 74.133,52.3 73.916,51.834 73.55,51 73.184,50.166 72.967,49.617 72.9,49.35 l 0.45,0.95 c 0.333,0.667 0.617,1.367 0.85,2.1 0.733,1.367 0.984,2.4 0.75,3.1 z m 7.4,-1.95 c -3.366,-1.8 -5.416,-3.383 -6.149,-4.75 l 0.7,-0.7 c 0.066,0 0.899,0.367 2.5,1.1 1.666,0.733 2.983,1.216 3.949,1.45 1.767,0.4 4.084,0.6 6.95,0.6 1.233,0 3.917,-0.717 8.05,-2.15 3.767,-1.333 6.067,-2.25 6.9,-2.75 -0.833,1.767 -1.816,2.933 -2.95,3.5 -1.8,0.566 -3.55,1.217 -5.25,1.95 -0.666,0.2 -1.649,0.383 -2.95,0.55 -1.3,0.167 -2.399,0.267 -3.3,0.3 -1.2,-0.033 -2.333,-0.05 -3.399,-0.05 -2.035,-0.033 -3.717,0.283 -5.051,0.95 z"
   id="path5"
   inkscape:connector-curvature="0"
   style="fill:#d2c8ba" />
	<path
   d="m 72.7,19.7 -0.8,0.9 c 0.233,0.133 0.35,0.233 0.35,0.3 l 2.7,0.25 c 0.6,0 0.983,-0.133 1.149,-0.4 0.134,-0.2 0.317,-0.55 0.551,-1.05 -0.5,-0.667 -1.067,-1.217 -1.7,-1.65 l 0,-2.1 c -5.667,0.3 -9.467,0.85 -11.4,1.65 -1.133,0.467 -1.7,1.133 -1.7,2 0,0.4 0.083,0.65 0.25,0.75 0.167,0.066 0.25,0.117 0.25,0.15 L 65,20.75 c 0.1,0 2.667,-0.35 7.7,-1.05 z m 48.15,27.7 3.351,-0.15 1.8,0 -0.35,0.2 -4.8,-0.05 z m -2.75,-3.3 c -0.533,-1.1 -1.666,-2.417 -3.399,-3.95 -1.834,-1.566 -3.25,-2.4 -4.25,-2.5 l 0.45,-0.1 c 1,0.2 1.899,-0.017 2.699,-0.65 0.767,-0.6 1.217,-1.367 1.351,-2.3 l -2,-0.5 c -0.8,-1.2 -1.967,-2.25 -3.5,-3.15 -1.967,-1.133 -4.134,-1.7 -6.5,-1.7 -0.934,0 -1.667,0.383 -2.2,1.15 -0.366,0.5 -0.55,0.917 -0.55,1.25 0,1.067 0.633,2.083 1.899,3.05 0.167,0.133 1.45,0.933 3.851,2.4 0.5,3.066 0.35,6.017 -0.45,8.85 -0.6,2.066 -1.366,3.7 -2.3,4.9 -1.934,0.533 -3.983,0.85 -6.15,0.95 1.7,-0.733 3.45,-1.383 5.25,-1.95 1.134,-0.567 2.117,-1.733 2.95,-3.5 -0.833,0.5 -3.134,1.417 -6.9,2.75 -4.133,1.433 -6.816,2.15 -8.05,2.15 -2.866,0 -5.184,-0.2 -6.95,-0.6 -0.966,-0.233 -2.283,-0.717 -3.949,-1.45 -1.601,-0.733 -2.434,-1.1 -2.5,-1.1 0,-0.833 -0.301,-1.55 -0.9,-2.15 -0.6,-0.6 -1.317,-0.9 -2.15,-0.9 0.066,-0.233 -0.233,-0.283 -0.9,-0.15 -0.667,0.133 -1,0.35 -1,0.65 0.1,0.2 0.25,0.35 0.45,0.45 l 0.55,-0.15 -0.8,0.7 c -0.033,0 -0.05,0.017 -0.05,0.05 -0.267,0.233 -0.483,0.117 -0.65,-0.35 l 0.249,0.75 -0.75,0.95 c 0.367,0.466 0.683,0.783 0.95,0.95 0.4,0.267 0.917,0.417 1.55,0.45 0.7,0.5 1.983,2.333 3.85,5.5 l -2.35,0.65 c 0.233,-0.7 -0.017,-1.733 -0.75,-3.1 -0.233,-0.733 -0.517,-1.433 -0.85,-2.1 l -0.45,-0.95 c 0.067,0.267 0.283,0.816 0.65,1.65 0.367,0.834 0.583,1.3 0.65,1.4 0.033,0.2 0.05,0.65 0.05,1.35 l -4.55,0.05 c -10.534,-0.133 -16.9,-0.333 -19.1,-0.6 -0.767,-0.1 -2.083,-0.717 -3.95,-1.85 -2.133,-1.333 -4.55,-2.367 -7.25,-3.1 l -0.9,-0.9 c 0.533,-0.4 1.4,-1.35 2.6,-2.85 1.233,-1.533 1.883,-2.517 1.95,-2.95 l -0.45,0 -0.1,-0.45 1.5,-0.8 -0.05,0.6 c 1.6,0.033 2.617,-0.033 3.05,-0.2 0.767,-0.333 1.083,-1.15 0.95,-2.45 l -0.55,0.05 c -0.3,0.034 -0.9,0.317 -1.8,0.85 -0.833,0.467 -1.367,0.8 -1.6,1 l -2.5,1 -2.05,0.8 0.4,0.05 c -0.434,0 -0.85,-0.017 -1.25,-0.05 -3.033,-0.233 -5.65,-1.267 -7.85,-3.1 -2.5,-2.1 -3.767,-4.617 -3.8,-7.55 l 0,-0.05 -1.95,-0.2 c -0.633,-0.9 -1.1,-1.95 -1.4,-3.15 l 0.05,0.05 c -0.667,-0.867 -2.383,-2.75 -5.15,-5.65 -1,-1.033 -1.5,-2.316 -1.5,-3.85 1.6,-6 2.633,-10.117 3.1,-12.35 0.3,-0.333 0.683,-0.833 1.15,-1.5 0.3,-0.367 0.583,-0.633 0.85,-0.8 l 0.1,-0.1 0,-0.05 c 0.033,0 0.066,-0.017 0.1,-0.05 l 0.15,-0.15 c 7.2,-1.3 11.55,-2.067 13.05,-2.3 C 40.868,0.383 46.118,0 51.251,0 c 5.467,0 11.767,0.433 18.9,1.3 3.733,0.467 8.234,1.05 13.5,1.75 0.633,0.233 0.399,0.383 -0.7,0.45 -1.533,0.067 -2.3,0.65 -2.3,1.75 0,0.4 0.116,0.667 0.35,0.8 0.1,0.067 0.2,0.1 0.3,0.1 l 1.6,0.05 c 1.3,0 2.333,-0.133 3.1,-0.4 0.5,-0.167 1,-0.466 1.5,-0.9 l -0.5,-0.7 -2.95,-1.15 c 3.467,0.167 7.5,1.767 12.101,4.8 2.866,1.9 8.583,5.717 17.149,11.45 5.667,3.434 11.566,7.684 17.7,12.75 1.667,1.133 3.6,3.417 5.8,6.85 2.367,3.667 3.934,5.833 4.7,6.5 -2.1,0.8 -3.566,1.233 -4.4,1.3 -2.267,0.133 -5.233,0.367 -8.899,0.7 l -0.05,-0.15 c 1.133,0.1 2.85,-0.083 5.149,-0.55 2.134,-0.434 3.351,-0.784 3.65,-1.05 l -9.2,-0.15 0.2,-0.55 -7.35,-2.35 -2.5,1.5 z m 2.35,3.3 -3.601,-0.1 0.45,0.9 c -0.566,-1.034 -1.017,-1.8 -1.35,-2.3 l -0.351,-0.45 c 1.067,0.566 1.9,1 2.5,1.3 0.167,0.067 0.317,0.133 0.45,0.2 0.67,0.267 1.3,0.417 1.9,0.45 z m -3.3,-8.15 0,-1.95 -1.9,0 0,1.95 1.9,0 z m -6.7,0.4 c 0.6,0.434 1.45,1.033 2.55,1.8 0.866,0.733 1.517,1.583 1.95,2.55 -0.2,-0.4 -0.851,-1.1 -1.95,-2.1 -0.93,-0.867 -1.78,-1.617 -2.55,-2.25 z m -1.95,0 0.6,0.35 0.601,0.45 -1.2,-0.8 z m 34.4,7.05 -0.101,-0.15 0.75,0.85 -0.65,-0.7 z M 89.6,17.65 c -0.366,0.434 -0.716,0.684 -1.05,0.75 0.033,0.3 0.134,0.6 0.3,0.9 0.167,0.267 0.25,0.434 0.25,0.5 1.367,0 2.317,-0.183 2.851,-0.55 -1.135,-1.233 -1.918,-1.767 -2.351,-1.6 z m -2.7,7.55 0,-2.05 -4.25,0 c 0.666,-0.2 1.1,-0.383 1.3,-0.55 l -1,-1.65 c -1.434,0.3 -2.467,0.667 -3.101,1.1 -0.333,0.233 -0.649,0.617 -0.949,1.15 l 1.949,0.2 c 0.301,0 0.634,-0.033 1,-0.1 l 0,2.15 5.051,0 0,-0.2 0.649,0.35 c 0.467,0.066 1,0.05 1.601,-0.05 0.566,-0.066 0.933,-0.167 1.1,-0.3 l 0,-1.65 -1.05,0.3 C 88.566,24 87.983,24.25 87.45,24.65 87.184,24.917 87,25.1 86.9,25.2 Z m 4.5,1.05 c 0.433,0.033 0.833,0.033 1.199,0 L 90.95,25.6 c -0.066,0.2 -0.184,0.333 -0.351,0.4 10e-4,0.1 0.267,0.183 0.801,0.25 z m -10.35,9.4 c 0,-0.3 -0.149,-0.983 -0.45,-2.05 -2.433,0.833 -3.767,1.417 -4,1.75 0.134,0.267 0.117,0.517 -0.05,0.75 0.3,0.133 0.45,0.25 0.45,0.35 l 0.95,0.15 c 0.733,0.1 1.3,0.15 1.7,0.15 0.533,0 0.966,-0.167 1.3,-0.5 0.1,0.867 0.399,1.333 0.899,1.4 0.233,-0.066 0.4,-0.316 0.5,-0.75 -0.033,-0.267 -0.267,-0.55 -0.699,-0.85 l -0.6,-0.4 z m 29.6,49.4 c 0.399,0.066 0.966,0.101 1.699,0.101 0.733,-0.034 1.334,-0.117 1.801,-0.25 -0.334,0.133 -0.867,0.233 -1.601,0.3 -0.733,0.033 -1.366,0.017 -1.899,-0.05 l 0,-0.101 z m -1.3,-12.75 -0.6,-3.1 c -0.1,-1.3 -0.066,-2.167 0.1,-2.601 l 0.601,-0.05 0.149,0 c 0.301,0.367 0.617,0.967 0.95,1.8 0.3,0.834 0.45,1.417 0.45,1.75 0,0.835 -0.55,1.568 -1.65,2.201 z M 90.8,52.65 c -1.533,0.6 -2.55,0.967 -3.05,1.1 -0.634,0.167 -1.866,0.25 -3.7,0.25 -0.833,0 -1.399,-0.15 -1.7,-0.45 1.334,-0.667 3.017,-0.983 5.051,-0.95 1.066,0 2.199,0.017 3.399,0.05 z m 31.15,24.6 0.1,-0.7 -0.05,0.4 -0.05,0.3 z M 57.2,3.6 C 57,3.4 56.9,3.25 56.9,3.15 c -0.566,-0.033 -1.066,0 -1.5,0.1 -0.7,0.167 -1.717,0.533 -3.05,1.1 l 3.1,0.3 c 0.5,0 0.867,-0.117 1.1,-0.35 0.167,-0.133 0.383,-0.367 0.65,-0.7 z M 48.35,8.7 46.7,8.05 c -0.1,0 -0.684,0.25 -1.75,0.75 -1,0.434 -1.65,0.717 -1.95,0.85 l 1.5,0.2 C 45.933,9.75 47.217,9.367 48.35,8.7 Z M 45,3.35 C 44.5,3.083 44.017,2.95 43.55,2.95 42.117,3.15 40.7,3.483 39.3,3.95 36.533,4.883 35.15,6 35.15,7.3 c 0,2.2 2.067,2.7 6.2,1.5 C 45.45,7.633 47.567,6.383 47.7,5.05 46.067,4.017 45.167,3.45 45,3.35 Z m 17,28.5 c 0.333,0.6 0.533,0.95 0.6,1.05 0.233,0.3 0.5,0.45 0.8,0.45 0.867,0 1.417,-0.2 1.65,-0.6 0.233,-0.433 -0.783,-1.367 -3.05,-2.8 l -0.05,-1 c -0.9,-0.233 -1.684,-0.35 -2.35,-0.35 -1.233,0 -2.517,0.3 -3.85,0.9 -1.667,0.733 -2.5,1.667 -2.5,2.8 0,0.534 0.15,1.067 0.45,1.6 0.533,0.934 1.383,1.4 2.55,1.4 1.1,0 2.25,-0.316 3.45,-0.95 1.333,-0.733 2.1,-1.567 2.3,-2.5 z m -3.8,12.4 c -1.534,0.467 -2.3,1.033 -2.3,1.7 0,0.667 0.767,1.233 2.3,1.7 1.5,0.467 3.316,0.7 5.45,0.7 2.134,0 3.967,-0.233 5.5,-0.7 1.5,-0.467 2.25,-1.033 2.25,-1.7 0,-0.667 -0.75,-1.233 -2.25,-1.7 -1.533,-0.467 -3.367,-0.7 -5.5,-0.7 -2.133,0 -3.95,0.233 -5.45,0.7 z M 32.6,25.3 c -0.4,0.267 -0.667,0.45 -0.8,0.55 -0.267,0.233 -0.4,0.55 -0.4,0.95 0,0.667 0.483,0.767 1.45,0.3 2.1,-0.167 3.65,-0.583 4.65,-1.25 0.667,-0.5 1,-1.033 1,-1.6 0,-0.433 -0.05,-0.783 -0.15,-1.05 C 38.217,22.867 38.1,22.583 38,22.35 l -1.1,0 c 0,-1.3 -0.566,-2.617 -1.7,-3.95 -1.367,-1.633 -3.083,-2.45 -5.15,-2.45 -1.8,0 -3.1,0.2 -3.9,0.6 -0.733,0.4 -1.1,1 -1.1,1.8 0,0.066 0.233,1.017 0.7,2.85 0.433,2.033 0.65,3.566 0.65,4.6 2.833,-0.033 4.9,-0.2 6.2,-0.5 z M 12.35,60.35 7.7,49.3 c 0.7,1.267 1.583,3.2 2.65,5.8 0.933,2.266 1.6,4.016 2,5.25 z m 32.75,36.3 0.4,0.149 3.05,1.101 2.15,0.8 c -2.934,-0.967 -5.383,-1.851 -7.35,-2.65 -1.867,-0.733 -3.567,-1.55 -5.1,-2.45 1.567,0.8 3.15,1.55 4.75,2.25 l 2.1,0.8 z m 3.5,-2.45 c 0.133,-2.167 0.467,-4.934 1,-8.3 0.566,-3.134 0.867,-4.917 0.9,-5.351 0.133,-0.5 0.45,-1.283 0.95,-2.35 0.5,-1.067 0.8,-1.75 0.9,-2.05 0.533,-0.767 1.633,-2.117 3.3,-4.051 2,-2.366 3.533,-3.983 4.6,-4.85 l -0.5,1.3 c -0.333,0.967 -0.5,1.65 -0.5,2.05 0,0.267 0.1,2.517 0.3,6.75 -0.066,4.101 -0.816,6.15 -2.25,6.15 -1.566,0 -3.3,1.217 -5.2,3.65 -1.833,2.366 -2.75,4.433 -2.75,6.199 0,0.4 0.066,0.617 0.2,0.65 0.067,0 0.184,-0.017 0.35,-0.05 0.233,-0.033 -0.183,0.066 -1.25,0.3 L 48.6,94.2 Z M 34.9,51.35 c 0.967,-2.2 2.5,-3.117 4.6,-2.75 l 0.1,0.15 c -0.4,4.767 -0.75,7.884 -1.05,9.35 -0.433,1.9 -1.167,2.851 -2.2,2.851 -0.733,0 -1.317,-0.384 -1.75,-1.15 -0.434,-0.767 -0.65,-1.85 -0.65,-3.25 0,-0.366 0.017,-0.733 0.05,-1.1 0.067,-1.367 0.317,-2.6 0.75,-3.7 0.033,-0.134 0.083,-0.268 0.15,-0.401 z M 33.8,43 33.55,43.1 33.45,43 33.8,43 Z m -14.2,1.5 c -0.9,-1 -1.35,-3.183 -1.35,-6.55 0,-3.1 1.9,-5.383 5.7,-6.85 l 0,8.3 c 0.033,2 -0.034,3.333 -0.2,4 -0.333,1.133 -1.067,1.7 -2.2,1.7 -0.933,0 -1.583,-0.2 -1.95,-0.6 z m 21.35,10.1 c 0.867,0 1.35,0.15 1.45,0.45 l -0.15,0.75 c -0.467,0.566 -1,0.816 -1.6,0.75 l 0.3,-1.95 z m 18.65,1.75 c -2,-0.233 -4.8,-0.483 -8.4,-0.75 3.533,0.067 6.383,0.317 8.55,0.75 l -0.15,0 z m 5.45,1 -0.2,-0.1 c 1.566,-0.1 2.9,-0.267 4,-0.5 1.267,-0.3 2.583,-0.517 3.95,-0.65 -0.267,0.267 -0.833,0.667 -1.7,1.2 -0.8,0.467 -1.267,0.7 -1.4,0.7 -0.467,0 -2.017,-0.217 -4.65,-0.65 z m 0.9,34.5 c -0.7,0.9 -1.75,3.834 -3.15,8.801 l -0.75,0.6 c 0.833,-3 1.4,-4.983 1.7,-5.95 0.5,-1.467 1.233,-2.616 2.2,-3.45 z M 64.25,62.6 64.1,64.15 c -0.1,0.533 -0.333,0.966 -0.7,1.3 -0.333,0.2 -0.533,0.316 -0.6,0.35 -0.2,-0.033 -0.35,-0.133 -0.45,-0.3 l -0.1,-0.25 c 0,-0.267 0.333,-0.783 1,-1.55 0.333,-0.4 0.667,-0.766 1,-1.1 z"
   id="path7"
   inkscape:connector-curvature="0"
   style="fill:#b3aa9e" />
	<path
   d="m 128.2,47.4 c 3.666,-0.333 6.633,-0.566 8.899,-0.7 0.834,-0.067 2.301,-0.5 4.4,-1.3 l 1.3,1.15 c -1.767,0.6 -3.333,1.133 -4.7,1.6 -2.633,0.833 -4.8,1.367 -6.5,1.6 -1.333,0.167 -3.267,0.333 -5.8,0.5 -2.066,0.1 -3.483,0.15 -4.25,0.15 -3.366,0 -5.517,-0.983 -6.45,-2.95 -1.466,-3.2 -3.267,-5.534 -5.399,-7 L 109.1,40 c -0.199,-0.233 -0.383,-0.533 -0.55,-0.9 l -0.05,0.55 c -0.533,-0.367 -0.983,-0.717 -1.35,-1.05 l -0.25,-1.1 1.199,0.25 c 0.434,0.433 1.217,1.067 2.351,1.9 0.767,0.633 1.616,1.383 2.55,2.25 1.1,1 1.75,1.7 1.95,2.1 0.2,0.833 0.416,1.317 0.649,1.45 l 0.351,0.45 c 0.333,0.5 0.783,1.267 1.35,2.3 l -0.45,-0.9 3.601,0.1 0.399,0 4.801,0.05 c -0.467,0.267 -1.051,0.65 -1.75,1.15 l 0.449,0.5 c 0.167,0.1 0.301,0.183 0.4,0.25 0.1,0.066 0.35,0.1 0.75,0.1 1.03,0 1.93,-0.683 2.7,-2.05 z M 20.8,4.55 22.1,3.8 C 21.833,3.967 21.55,4.234 21.25,4.6 20.783,5.267 20.4,5.767 20.1,6.1 l 0.7,-1.55 z m -2.15,19.35 4.95,4 c 0.3,1.2 0.767,2.25 1.4,3.15 -0.367,0 -0.033,0.784 1,2.35 0.333,1.467 0.767,2.5 1.3,3.1 0.267,1.133 0.917,2.167 1.95,3.1 1.633,1.533 2.467,2.316 2.5,2.35 -0.833,-0.367 -1.9,-1.233 -3.2,-2.6 -1.4,-1.467 -2.267,-2.684 -2.6,-3.65 L 25.6,34.85 c 0,0.767 0.5,4.7 1.5,11.8 0,1.7 -0.367,2.917 -1.1,3.65 -0.433,0.434 -0.883,0.65 -1.35,0.65 -0.933,0 -2.1,-0.95 -3.5,-2.85 -0.2,-0.267 -1.35,-2.033 -3.45,-5.3 l -0.35,-1.3 0.2,5.25 c 0,2.633 -0.283,4.467 -0.85,5.5 -1.034,1.9 -1.767,3.634 -2.2,5.2 l -0.5,0.2 c -0.367,-0.4 -0.667,-1.084 -0.9,-2.051 -0.2,-0.966 -0.9,-2.083 -2.1,-3.35 l 2.7,-3.3 c -0.567,-0.567 -0.917,-0.95 -1.05,-1.15 -0.467,-0.633 -0.7,-1.316 -0.7,-2.05 0,-0.7 0.316,-2.083 0.95,-4.15 1.133,-3.633 1.85,-6.033 2.15,-7.2 -1.3,0.567 -2.383,1.017 -3.25,1.35 -1.6,0.633 -2.667,0.967 -3.2,1 -1.233,-3 0.7,-5.283 5.8,-6.85 2.6,-0.767 5.467,-1.316 8.6,-1.65 -0.2,-0.3 -0.817,-0.9 -1.85,-1.8 -1.167,-1.034 -1.95,-1.767 -2.35,-2.2 L 18.65,23.9 Z M 39.5,48.6 c -2.1,-0.367 -3.633,0.55 -4.6,2.75 0.267,-1.067 0.467,-1.817 0.6,-2.25 1.433,-1.367 2.5,-2.317 3.2,-2.85 0.433,-0.4 1.733,-1.967 3.9,-4.7 l 0.45,0 c -0.066,0.434 -0.716,1.417 -1.95,2.95 -1.2,1.5 -2.067,2.45 -2.6,2.85 l 0.9,0.9 0.1,0.35 z m 12.85,27.55 c 0.7,-5.167 3.233,-8.934 7.6,-11.301 2.6,-1.433 4.017,-2.233 4.25,-2.399 1.267,-1 1.9,-2.267 1.9,-3.8 0,-0.434 -0.1,-0.717 -0.3,-0.851 -0.267,-0.133 -0.517,-0.283 -0.75,-0.45 2.633,0.434 4.183,0.651 4.65,0.651 0.133,0 0.6,-0.233 1.4,-0.7 0.867,-0.533 1.433,-0.934 1.7,-1.2 0.9,0 1.617,-0.199 2.15,-0.6 l 2.35,-0.65 0.1,0.75 c -0.467,1.067 -1.517,1.784 -3.15,2.15 -1.633,0.134 -2.517,0.217 -2.65,0.25 0.167,0.3 1.467,1.35 3.9,3.15 2.333,2.199 3.5,4.6 3.5,7.199 0,1 -0.816,1.917 -2.45,2.75 -1.966,1.034 -3.267,2.184 -3.9,3.45 -0.333,0.634 -0.617,2.851 -0.85,6.65 -0.267,3.733 -0.533,5.833 -0.8,6.3 -0.533,0.934 -1.867,1.333 -4,1.2 l -3.65,-0.15 c -0.867,0.934 -1.45,3.033 -1.75,6.3 -0.167,1.767 -0.383,4.317 -0.65,7.65 l -0.35,0.65 -4.1,-2.101 -0.1,-0.1 -0.65,-0.5 c -1.367,-0.867 -2.717,-1.884 -4.05,-3.05 -1.4,-1.233 -2.417,-2.284 -3.05,-3.15 1.067,-0.233 1.483,-0.333 1.25,-0.3 -0.167,0.033 -0.283,0.05 -0.35,0.05 -0.133,-0.033 -0.2,-0.25 -0.2,-0.65 0,-1.767 0.917,-3.833 2.75,-6.199 1.9,-2.434 3.633,-3.65 5.2,-3.65 1.434,0 2.184,-2.05 2.25,-6.15 -0.2,-4.233 -0.3,-6.483 -0.3,-6.75 0,-0.399 0.167,-1.083 0.5,-2.05 l 0.5,-1.3 c -1.067,0.866 -2.6,2.483 -4.6,4.85 -1.667,1.932 -2.767,3.283 -3.3,4.049 z m -1.85,4.4 c -0.033,0.434 -0.333,2.217 -0.9,5.351 -0.533,3.366 -0.867,6.133 -1,8.3 -0.167,-0.467 -0.317,-1.851 -0.45,-4.15 -0.133,-1.866 -0.2,-3.233 -0.2,-4.1 0,-0.135 0.85,-1.934 2.55,-5.401 z m -5.4,16.1 -2.1,-0.8 c 0.367,-4 0.1,-6.716 -0.8,-8.149 -0.633,-1 -1.784,-1.517 -3.45,-1.55 C 36.783,86.083 35.533,85.9 35,85.6 c -1.167,-0.733 -1.75,-2.483 -1.75,-5.25 0,-0.566 0.25,-1 0.75,-1.3 0.867,-0.566 2.6,-0.866 5.2,-0.899 l 0.15,-3.4 c 0,-0.667 -0.067,-2.6 -0.2,-5.8 -0.167,-3.634 -0.333,-6.434 -0.5,-8.4 l -0.3,-0.75 c -0.233,3.467 -0.367,5.533 -0.4,6.2 -0.034,1.833 -0.6,3.45 -1.7,4.85 -1.067,1.101 -1.6,1.667 -1.6,1.7 0,0.4 -0.05,0.634 -0.15,0.7 -0.133,0 -0.267,0.033 -0.4,0.1 -1.167,-0.3 -2.6,-1.3 -4.3,-3 -2.6,-2.533 -3.9,-5.533 -3.9,-9 0,-1.866 0.483,-3.35 1.45,-4.449 0.867,-0.967 2.283,-1.801 4.25,-2.5 0.066,0.633 0.117,1.367 0.15,2.2 0.1,0.634 0.417,1.351 0.95,2.15 0.466,-0.4 0.9,-1.5 1.3,-3.3 -0.033,0.366 -0.05,0.733 -0.05,1.1 0,1.4 0.216,2.483 0.65,3.25 0.433,0.767 1.017,1.15 1.75,1.15 1.033,0 1.767,-0.95 2.2,-2.851 0.3,-1.466 0.65,-4.583 1.05,-9.35 2.4,2.3 4.2,3.833 5.4,4.6 0.5,0.333 2.033,1.083 4.6,2.25 l 0.15,0.5 L 48.6,55.9 c 0,0.1 0.183,1.233 0.55,3.399 0.367,2.033 0.55,3.467 0.55,4.3 0,2.567 -0.684,5.15 -2.05,7.75 -1.367,2.601 -2.05,4.467 -2.05,5.601 0,0.333 0.15,1.633 0.45,3.899 0.267,2.233 0.4,3.517 0.4,3.851 0,1.533 -0.517,4.149 -1.55,7.85 0,1 0.067,2.367 0.2,4.1 z m 56.95,-8.1 c -0.066,3.033 -1.116,4.55 -3.149,4.55 -1,0 -1.784,-0.25 -2.351,-0.75 -0.399,-0.366 -0.75,-0.966 -1.05,-1.8 0.1,-0.833 0.95,-2.5 2.55,-5 1.667,-2.633 3.066,-4.399 4.2,-5.3 l 0.1,4.1 c 0,1.667 -0.1,3.067 -0.3,4.2 z m 19.8,-10.9 0.05,-0.35 0.05,-0.05 0.05,-0.3 c 0.134,-0.334 0.35,-0.816 0.65,-1.45 0.399,-0.4 0.6,-3 0.6,-7.8 0,0.033 0.583,1.517 1.75,4.45 0.566,1.466 0.85,5.066 0.85,10.8 0,1.566 -0.25,2.783 -0.75,3.649 -0.466,0.801 -1.083,1.184 -1.85,1.15 l -0.65,-0.25 c -0.233,-0.8 -0.416,-1.684 -0.55,-2.65 l -0.2,-7.199 z m -11,-13.9 c 0.2,-0.333 0.417,-0.65 0.65,-0.95 1.167,-1.5 1.866,-2.467 2.1,-2.899 0.101,0.533 0.45,1.767 1.051,3.699 0.566,1.867 0.85,2.851 0.85,2.95 l 0.05,0.25 c -0.333,3.101 -0.934,5.884 -1.8,8.351 -0.8,2.366 -1.634,3.85 -2.5,4.449 -0.467,-0.366 -0.9,-1.649 -1.3,-3.85 -0.367,-2.167 -0.566,-3.316 -0.601,-3.45 1.101,-0.633 1.65,-1.366 1.65,-2.2 0,-0.333 -0.15,-0.916 -0.45,-1.75 -0.333,-0.833 -0.649,-1.433 -0.95,-1.8 0.034,-0.1 0.067,-0.217 0.101,-0.35 0.27,-0.867 0.65,-1.683 1.15,-2.45 z m 10.35,-4.7 c -0.2,-0.2 -0.3,-0.416 -0.3,-0.649 0,-0.233 0.1,-0.434 0.3,-0.601 0.166,-0.2 0.366,-0.3 0.6,-0.3 0.234,0 0.45,0.1 0.65,0.3 0.166,0.167 0.25,0.367 0.25,0.601 0,0.234 -0.084,0.449 -0.25,0.649 -0.2,0.167 -0.417,0.25 -0.65,0.25 -0.233,0 -0.43,-0.083 -0.6,-0.25 z M 13.7,19.6 c -0.333,0.633 -0.633,1.816 -0.9,3.55 -0.466,1.467 -1.566,2.2 -3.3,2.2 -0.067,0 -0.583,-0.434 -1.55,-1.3 -2.567,2.267 -4.017,3.4 -4.35,3.4 -0.4,0 -0.617,-0.017 -0.65,-0.05 L 3,27.3 C 2.433,26.267 2.15,24.383 2.15,21.65 3.35,19.95 5.3,18.217 8,16.45 c 3.033,-1.967 6.183,-4.917 9.45,-8.85 0.133,1.2 -0.3,2.9 -1.3,5.1 -1.267,2.7 -2.017,4.583 -2.25,5.65 l -0.2,0 0,1.25 z M 33.55,43.1 33.8,43 c 0.667,0 1.883,-0.117 3.65,-0.35 0.133,-0.033 0.283,-0.066 0.45,-0.1 -0.267,0.1 -0.533,0.2 -0.8,0.3 -0.9,0.367 -1.85,0.816 -2.85,1.35 -0.133,-0.367 -0.367,-0.733 -0.7,-1.1 z M 5.2,44.7 4.85,44.3 5,44.45 5.2,44.7 Z m 14.4,-0.2 c 0.367,0.4 1.017,0.6 1.95,0.6 1.133,0 1.867,-0.567 2.2,-1.7 0.167,-0.667 0.233,-2 0.2,-4 l 0,-8.3 c -3.8,1.467 -5.7,3.75 -5.7,6.85 0,3.367 0.45,5.55 1.35,6.55 z m 40,11.85 c -3.033,0.2 -5.783,0.184 -8.25,-0.05 l -0.75,-0.7 0.6,0 c 3.6,0.266 6.4,0.516 8.4,0.75 z m -18.65,-1.75 -0.3,1.95 c 0.6,0.066 1.133,-0.184 1.6,-0.75 L 42.4,55.05 C 42.3,54.75 41.817,54.6 40.95,54.6 Z m 23.3,8 c -0.333,0.334 -0.667,0.7 -1,1.101 -0.667,0.767 -1,1.283 -1,1.55 l 0.1,0.25 c 0.1,0.167 0.25,0.267 0.45,0.3 0.067,-0.033 0.267,-0.149 0.6,-0.35 0.367,-0.334 0.6,-0.767 0.7,-1.3 L 64.25,62.6 Z"
   id="path9"
   inkscape:connector-curvature="0"
   style="fill:#9b9286" />
	<path
   d="m 128.15,47.25 0.05,0.15 c -0.767,1.367 -1.667,2.05 -2.7,2.05 -0.4,0 -0.65,-0.034 -0.75,-0.1 -0.1,-0.067 -0.233,-0.15 -0.4,-0.25 l -0.449,-0.5 c 0.699,-0.5 1.283,-0.883 1.75,-1.15 l 0.35,-0.2 c 1.033,-0.567 1.684,-1 1.95,-1.3 l 0.2,1.3 z M 76.2,48.8 c -0.467,0.267 -1.383,0.45 -2.75,0.55 C 72.817,49.317 72.3,49.166 71.9,48.9 71.633,48.733 71.317,48.417 70.95,47.95 L 71.7,47 72.1,46.6 c 0,-0.033 0.017,-0.05 0.05,-0.05 l 0.8,-0.7 c 0.4,-0.2 0.7,-0.467 0.9,-0.8 0.833,0 1.55,0.3 2.15,0.9 0.6,0.6 0.9,1.316 0.9,2.15 l -0.7,0.7 z m 34.7,-11.25 c 0.1,-0.333 0.316,-0.733 0.649,-1.2 0.233,-0.367 0.467,-1.167 0.7,-2.4 l 0.7,0.15 2,0.5 c -0.134,0.933 -0.584,1.7 -1.351,2.3 -0.8,0.633 -1.7,0.85 -2.7,0.65 z m -24,-12.35 -0.05,0 0.051,0.05 0,0.2 -5.051,0 0,-2.3 5.051,0 0,2.05 z m 4.5,1.05 C 90.866,26.183 90.6,26.1 90.6,26 c 0.167,-0.067 0.284,-0.2 0.351,-0.4 l 1.649,0.65 c -0.367,0.033 -0.767,0.033 -1.2,0 z m -10.45,10 0.1,-0.6 0.601,0.4 c 0.433,0.3 0.666,0.583 0.699,0.85 -0.1,0.434 -0.267,0.684 -0.5,0.75 -0.5,-0.067 -0.8,-0.533 -0.9,-1.4 z M 72.7,19.7 l 0.9,-0.35 0.35,-0.2 0,-1.2 1,0.1 c 0.633,0.434 1.2,0.983 1.7,1.65 -0.233,0.5 -0.417,0.85 -0.551,1.05 -0.166,0.267 -0.55,0.4 -1.149,0.4 l -2.7,-0.25 c 0,-0.066 -0.117,-0.167 -0.35,-0.3 l 0.8,-0.9 z M 48.35,8.7 C 47.217,9.367 45.933,9.75 44.5,9.85 L 43,9.65 C 43.3,9.517 43.95,9.233 44.95,8.8 46.016,8.3 46.6,8.05 46.7,8.05 L 48.35,8.7 Z M 62,29.95 c 2.267,1.433 3.283,2.367 3.05,2.8 -0.233,0.4 -0.783,0.6 -1.65,0.6 -0.3,0 -0.566,-0.15 -0.8,-0.45 -0.067,-0.1 -0.267,-0.45 -0.6,-1.05 l -0.05,-1.9 0.05,0 z M 32.6,25.3 c 0.767,-0.333 1.566,-0.883 2.4,-1.65 0.767,-0.7 1.4,-1.133 1.9,-1.3 l 1.1,0 c 0.1,0.233 0.217,0.517 0.35,0.85 0.1,0.267 0.15,0.617 0.15,1.05 0,0.567 -0.333,1.1 -1,1.6 -1,0.667 -2.55,1.083 -4.65,1.25 -0.967,0.467 -1.45,0.367 -1.45,-0.3 0,-0.4 0.133,-0.716 0.4,-0.95 0.133,-0.1 0.4,-0.283 0.8,-0.55 z"
   id="path11"
   inkscape:connector-curvature="0"
   style="fill:#8c847c" />
	<path
   d="m 117.15,39.25 -1.9,0 0,-1.95 1.9,0 0,1.95 z m 3.3,8.15 c -0.601,-0.033 -1.233,-0.183 -1.9,-0.45 -0.133,-0.067 -0.283,-0.133 -0.45,-0.2 -0.399,-0.4 -0.6,-0.85 -0.6,-1.35 0,-0.4 0.05,-0.667 0.15,-0.8 0.066,-0.1 0.216,-0.267 0.449,-0.5 l 2.5,-1.5 7.351,2.35 -0.2,0.55 c -0.6,0.733 -0.983,1.133 -1.15,1.2 -0.166,0.1 -0.966,0.283 -2.399,0.55 l -3.351,0.15 -0.4,0 z M 72.7,19.7 c -5.034,0.7 -7.6,1.05 -7.7,1.05 L 62.35,20.5 c 0,-0.033 -0.083,-0.083 -0.25,-0.15 -0.167,-0.1 -0.25,-0.35 -0.25,-0.75 0,-0.867 0.566,-1.533 1.7,-2 1.934,-0.8 5.733,-1.35 11.4,-1.65 l 0,2.1 -1,-0.1 0,1.2 -0.35,0.2 -0.9,0.35 z m 34.2,17.8 -0.95,-0.4 c -2.4,-1.467 -3.684,-2.267 -3.851,-2.4 -1.267,-0.967 -1.899,-1.983 -1.899,-3.05 0,-0.333 0.184,-0.75 0.55,-1.25 0.533,-0.767 1.267,-1.15 2.2,-1.15 2.366,0 4.533,0.567 6.5,1.7 1.533,0.9 2.7,1.95 3.5,3.15 l -0.7,-0.15 c -0.233,1.233 -0.467,2.033 -0.7,2.4 -0.333,0.467 -0.55,0.867 -0.649,1.2 l -0.45,0.1 c -0.834,0.1 -1.617,0.133 -2.351,0.1 L 106.9,37.5 Z M 83.65,3.05 84.049,3.05 87,4.2 87.5,4.9 C 87,5.334 86.5,5.633 86,5.8 85.233,6.067 84.2,6.2 82.9,6.2 L 81.3,6.15 c -0.1,0 -0.2,-0.033 -0.3,-0.1 -0.233,-0.133 -0.35,-0.4 -0.35,-0.8 0,-1.1 0.767,-1.683 2.3,-1.75 1.1,-0.067 1.333,-0.217 0.7,-0.45 z M 44,40.3 44,40.15 c 0.233,-0.2 0.767,-0.533 1.6,-1 0.9,-0.533 1.5,-0.816 1.8,-0.85 l 0.55,-0.05 c 0.133,1.3 -0.184,2.117 -0.95,2.45 -0.433,0.167 -1.45,0.233 -3.05,0.2 L 44,40.3 Z m 29.85,4.75 c -0.2,0.333 -0.5,0.6 -0.9,0.8 L 72.4,46 c -0.2,-0.1 -0.35,-0.25 -0.45,-0.45 0,-0.3 0.333,-0.517 1,-0.65 0.667,-0.133 0.967,-0.083 0.9,0.15 z M 89.6,17.65 c 0.434,-0.167 1.217,0.367 2.351,1.6 -0.533,0.367 -1.483,0.55 -2.851,0.55 0,-0.066 -0.083,-0.233 -0.25,-0.5 -0.166,-0.3 -0.267,-0.6 -0.3,-0.9 0.334,-0.067 0.683,-0.317 1.05,-0.75 z m -7.75,5.65 c -0.366,0.067 -0.699,0.1 -1,0.1 L 78.9,23.2 c 0.3,-0.534 0.616,-0.917 0.949,-1.15 0.634,-0.433 1.667,-0.8 3.101,-1.1 l 1,1.65 c -0.2,0.167 -0.634,0.35 -1.3,0.55 l -0.8,0 0,0.15 z m 5.05,1.95 -0.05,-0.05 0.05,0 c 0.1,-0.1 0.283,-0.284 0.55,-0.55 0.533,-0.4 1.116,-0.65 1.75,-0.75 l 1.05,-0.3 0,1.65 c -0.167,0.133 -0.533,0.233 -1.1,0.3 -0.601,0.1 -1.134,0.117 -1.601,0.05 L 86.9,25.25 Z m -5.85,10.4 -0.1,0.6 c -0.334,0.333 -0.767,0.5 -1.3,0.5 -0.4,0 -0.967,-0.05 -1.7,-0.15 L 77,36.45 c 0,-0.1 -0.15,-0.217 -0.45,-0.35 0.167,-0.233 0.184,-0.483 0.05,-0.75 0.233,-0.333 1.567,-0.917 4,-1.75 0.3,1.067 0.45,1.75 0.45,2.05 z M 57.2,3.6 c -0.267,0.333 -0.483,0.566 -0.65,0.7 -0.233,0.233 -0.6,0.35 -1.1,0.35 l -3.1,-0.3 c 1.333,-0.567 2.35,-0.934 3.05,-1.1 0.434,-0.1 0.934,-0.133 1.5,-0.1 0,0.1 0.1,0.25 0.3,0.45 z M 45,3.35 c 0.167,0.1 1.067,0.667 2.7,1.7 -0.133,1.333 -2.25,2.583 -6.35,3.75 -4.133,1.2 -6.2,0.7 -6.2,-1.5 0,-1.3 1.383,-2.417 4.15,-3.35 1.4,-0.467 2.817,-0.8 4.25,-1 0.467,0 0.95,0.133 1.45,0.4 z m 17,26.6 -0.05,0 0.05,1.9 c -0.2,0.933 -0.967,1.767 -2.3,2.5 -1.2,0.633 -2.35,0.95 -3.45,0.95 -1.167,0 -2.017,-0.466 -2.55,-1.4 -0.3,-0.533 -0.45,-1.066 -0.45,-1.6 0,-1.133 0.833,-2.066 2.5,-2.8 1.333,-0.6 2.617,-0.9 3.85,-0.9 0.667,0 1.45,0.117 2.35,0.35 l 0.05,1 z m -3.8,14.3 c 1.5,-0.467 3.316,-0.7 5.45,-0.7 2.134,0 3.967,0.233 5.5,0.7 1.5,0.467 2.25,1.033 2.25,1.7 0,0.667 -0.75,1.233 -2.25,1.7 -1.533,0.467 -3.367,0.7 -5.5,0.7 -2.133,0 -3.95,-0.233 -5.45,-0.7 -1.534,-0.467 -2.3,-1.033 -2.3,-1.7 0,-0.667 0.767,-1.233 2.3,-1.7 z M 36.9,22.35 c -0.5,0.167 -1.133,0.6 -1.9,1.3 -0.833,0.767 -1.633,1.317 -2.4,1.65 -1.3,0.3 -3.367,0.467 -6.2,0.5 0,-1.033 -0.217,-2.566 -0.65,-4.6 -0.467,-1.833 -0.7,-2.784 -0.7,-2.85 0,-0.8 0.367,-1.4 1.1,-1.8 0.8,-0.4 2.1,-0.6 3.9,-0.6 2.067,0 3.784,0.816 5.15,2.45 1.133,1.333 1.7,2.65 1.7,3.95 z"
   id="path13"
   inkscape:connector-curvature="0"
   style="fill:#c3b9ac" />
	<path
   d="m 109.7,40.45 c 1.233,2.233 2.416,4.15 3.55,5.75 0.5,0.867 0.75,2.316 0.75,4.35 0,0.633 -0.1,1.133 -0.3,1.5 -0.3,0.534 -0.884,0.917 -1.75,1.15 -0.101,0.133 -0.184,1.934 -0.25,5.399 -0.134,2.034 -0.417,3.75 -0.851,5.15 -0.5,0.767 -0.883,1.583 -1.149,2.45 -0.066,0.133 -0.15,0.25 -0.25,0.35 l -0.601,0.05 c -0.166,0.434 -0.199,1.301 -0.1,2.601 l -0.2,2.05 c 0,0.566 0.134,1.366 0.4,2.4 0.434,1.8 0.967,5.333 1.6,10.6 l -0.899,0.45 1,0.35 0,0.101 c 0.533,0.066 1.166,0.083 1.899,0.05 0.733,-0.066 1.267,-0.167 1.601,-0.3 2.1,0 3.883,-0.617 5.35,-1.851 1.467,-1.267 2.2,-2.783 2.2,-4.55 l 0.149,-0.85 0.2,7.199 -1.45,8.551 0.301,0.449 c 0.033,0 0.05,0.034 0.05,0.101 l 0.6,0 c 0.134,0 0.601,-0.283 1.4,-0.851 1.066,-0.767 2.05,-1.683 2.95,-2.75 l 0.199,-0.199 c -0.933,1.666 -1.416,2.517 -1.449,2.55 l -0.2,0.45 c 2.833,-0.267 4.684,-0.233 5.55,0.1 0.866,0.333 1.3,1.15 1.3,2.45 0,1.434 -1.7,2.6 -5.1,3.5 -2.601,0.7 -5.017,1.05 -7.25,1.05 -1.134,0 -2.367,-1.316 -3.7,-3.95 -1.134,-2.733 -1.75,-4.2 -1.85,-4.399 l -0.15,-0.25 -0.5,4.55 -0.6,-1.101 0.449,2.351 c 0,1.366 -0.3,2.55 -0.899,3.55 -0.467,0.733 -1,1.2 -1.601,1.4 -0.199,0.033 -0.399,0.05 -0.6,0.05 l -4.5,0.6 c 0.667,-0.866 1.434,-2.684 2.3,-5.45 1,-3.1 1.566,-5.866 1.7,-8.3 l -0.15,-1 c -2.166,3.733 -4.383,6.733 -6.649,9 -0.634,0.667 -1.617,1.316 -2.95,1.95 -0.733,0.4 -1.1,1 -1.1,1.8 0,0.634 0.149,1.617 0.449,2.95 -0.699,-0.634 -1.283,-1.316 -1.75,-2.05 -0.366,-0.566 -0.55,-0.934 -0.55,-1.101 0,-0.699 1.101,-1.883 3.3,-3.55 2.2,-1.666 3.301,-3.517 3.301,-5.55 0,-0.767 -0.284,-1.833 -0.851,-3.2 0.2,-1.133 0.3,-2.533 0.3,-4.2 l -0.1,-4.1 c -1.134,0.9 -2.533,2.667 -4.2,5.3 -1.6,2.5 -2.45,4.167 -2.55,5 -1.4,3.767 -2.2,6.066 -2.4,6.9 -0.166,0.733 -0.25,2.066 -0.25,4 l 0.15,3.55 -3.5,0.7 c -0.6,-3.7 -1.083,-7.15 -1.45,-10.351 L 87.699,94.4 c -0.167,0.399 -0.8,2.316 -1.9,5.75 -0.767,2.3 -1.45,3.816 -2.05,4.55 -1.033,1.233 -2.55,2.2 -4.55,2.899 -2,0.567 -3.233,1 -3.7,1.301 l -4.9,-1.101 c 6.833,-1.3 11.15,-2.666 12.95,-4.1 1.533,-1.167 2.3,-3.384 2.3,-6.65 0,-1.967 -0.716,-2.95 -2.149,-2.95 -1.167,0.101 -1.967,0.184 -2.4,0.25 -0.666,0.067 -1.149,-0.083 -1.45,-0.449 -0.6,-0.733 -0.899,-3.884 -0.899,-9.45 0,-1.667 0.25,-3.283 0.75,-4.851 0.399,-1.333 0.8,-2.149 1.2,-2.449 l 0.098,0.899 c 0.066,1.733 0.283,3.434 0.65,5.101 0.533,2.366 1.25,3.866 2.149,4.5 1.5,-1.134 2.601,-3.5 3.3,-7.101 0.434,-3.566 0.684,-5.55 0.75,-5.95 0.301,-1.366 1.467,-3.149 3.5,-5.35 2.167,-2.366 3.334,-3.767 3.5,-4.2 -0.066,0.467 -0.55,1.834 -1.449,4.101 -0.834,2.166 -1.351,3.399 -1.551,3.699 1.467,-1.866 2.834,-4.149 4.101,-6.85 1.233,-2.866 2.149,-4.884 2.75,-6.05 2,-3.9 4.833,-5.567 8.5,-5 0.1,1.233 0.133,4.116 0.1,8.649 1,-2 1.983,-6.5 2.95,-13.5 0,-1.467 -0.184,-2.867 -0.55,-4.2 -0.167,-0.467 -1.017,-2.9 -2.55,-7.3 0.366,0.333 0.816,0.683 1.35,1.05 l 1.2,0.801 z m 33.2,6.25 c -3.5,1.267 -6.217,2.2 -8.15,2.8 l -0.8,0.1 c 3.566,0.1 5.899,1.867 7,5.3 0.1,0.267 0.533,3.267 1.3,9 0.333,2.3 0.816,4.466 1.45,6.5 0.399,1.233 0.6,3.283 0.6,6.149 0,0.267 -0.133,1.434 -0.399,3.5 -0.301,2.467 -0.601,4.367 -0.9,5.7 l -0.4,1.35 c 0.101,-0.8 -0.017,-2.3 -0.35,-4.5 -0.267,-2.033 -0.533,-3.449 -0.8,-4.25 l -0.55,-1.199 c -0.233,0.966 -0.334,2.316 -0.301,4.05 0,0.899 0.034,1.916 0.101,3.05 0,1.3 -0.75,2.417 -2.25,3.35 -1.533,0.934 -3.934,1.75 -7.2,2.45 l -0.95,0.25 c 0.267,-0.533 0.667,-2.333 1.2,-5.399 0.5,-2.767 0.767,-4.45 0.8,-5.051 l 0,-1.25 c -1.133,2.101 -2.133,3.967 -3,5.601 0.533,-1.767 0.8,-3.667 0.8,-5.7 -0.633,-7.566 -0.949,-11.684 -0.949,-12.35 0,-0.4 0.1,-3.034 0.3,-7.9 0.066,-1.9 -0.117,-3.15 -0.55,-3.75 -0.534,-0.7 -1.75,-1.2 -3.65,-1.5 -0.134,-0.033 -3.1,-0.383 -8.9,-1.05 l 0.4,-0.2 c 0.1,-0.033 0.4,-0.15 0.9,-0.35 0.366,-0.133 0.55,-0.233 0.55,-0.3 3.666,-0.133 6.316,-0.283 7.95,-0.45 1.833,-0.167 3.649,-0.467 5.449,-0.9 1.7,-0.233 3.867,-0.767 6.5,-1.6 1.367,-0.467 2.934,-1 4.7,-1.6 l 0.1,0.149 z M 42.6,41.55 c -2.167,2.733 -3.467,4.3 -3.9,4.7 -0.7,0.533 -1.767,1.483 -3.2,2.85 l -0.15,0.15 c 1.033,-1.667 1.767,-2.783 2.2,-3.35 1.1,-1.5 2.45,-2.933 4.05,-4.3 l -6.35,4 c -0.067,0.167 -0.367,0.883 -0.9,2.15 -0.467,1.067 -0.733,1.75 -0.8,2.05 0,-2.4 0.883,-4.45 2.65,-6.15 0.267,-0.3 0.566,-0.566 0.9,-0.8 0.267,-0.1 0.533,-0.2 0.8,-0.3 1.067,-0.133 1.717,-0.316 1.95,-0.55 l -0.4,-0.05 2.05,-0.8 c 0.3,-0.033 0.633,-0.05 1,-0.05 l 0.1,0.45 z m 72.9,25 c 1.733,0.066 3.15,-0.45 4.25,-1.55 1.767,-1.733 3.717,-3.1 5.85,-4.1 -0.399,3.5 -1.583,5.85 -3.55,7.05 l -0.1,-4.351 c -1.233,1.667 -2,3.101 -2.3,4.301 -0.301,-0.034 -1.034,-0.217 -2.2,-0.551 -1.2,-0.3 -1.834,-0.483 -1.9,-0.55 L 115.5,66.55 Z M 94.75,60.9 c -0.3,-0.101 -1.7,-0.45 -4.2,-1.051 C 88.283,59.283 86.934,58.9 86.5,58.7 84.833,57.933 82.634,56.384 79.9,54.05 77.433,51.85 76.133,50.7 76,50.6 c 4.533,2.233 7.1,3.65 7.7,4.25 0.166,0.167 0.583,0.083 1.25,-0.25 1.767,0 4.7,-0.5 8.8,-1.5 4.066,-1 7,-1.5 8.8,-1.5 -1.833,1.566 -3.8,2.417 -5.899,2.55 -3.834,0.267 -6.367,0.55 -7.601,0.85 l -1.55,0.2 c 1.2,0.133 3.467,0.166 6.8,0.1 0.233,0.5 0.384,2.367 0.45,5.6 z m -3.5,15.7 c -1.967,4.9 -3.333,8.134 -4.1,9.7 -1.2,2.5 -2.934,3.7 -5.2,3.601 l -0.8,0 c 0.399,0.566 0.866,1.033 1.399,1.399 0.4,0.267 0.667,0.4 0.8,0.4 1.834,0 3.634,-1.134 5.4,-3.4 1.434,-1.8 2.267,-3.333 2.5,-4.6 l 0,-7.1 z m 30.75,0.35 0.05,-0.4 0.101,-1.45 0.449,-0.85 0.051,1.25 c -0.3,0.634 -0.52,1.116 -0.65,1.45 z M 13.9,18.35 c 0.434,0 0.8,0.117 1.1,0.35 0.3,0.2 0.45,0.45 0.45,0.75 0.2,0.867 0.45,1.716 0.75,2.55 0,0.633 -0.25,1.633 -0.75,3 -0.434,1.267 -0.85,2.233 -1.25,2.9 -5.9,3.067 -9.284,4.8 -10.15,5.2 L 4.6,32.5 c 6.1,-4.7 9.15,-8.533 9.15,-11.5 l -0.05,-1.4 0,-1.25 0.2,0 z m 5.05,6.45 c 0,0.667 -0.3,1.25 -0.9,1.75 -0.633,0.467 -1.383,0.7 -2.25,0.7 0.3,-0.2 0.85,-0.533 1.65,-1 0.7,-0.467 1.2,-0.95 1.5,-1.45 z M 4.85,44.3 2.75,42.1 c 0.933,0.033 3.467,-0.934 7.6,-2.9 -0.267,1.833 -0.717,3.45 -1.35,4.85 -0.133,0.2 -0.85,1.434 -2.15,3.7 L 6.75,47.5 C 7.783,45.433 8.4,44.067 8.6,43.4 8.1,43.467 7.433,43.65 6.6,43.95 5.767,44.283 5.233,44.45 5,44.45 L 4.85,44.3 Z M 20.8,75.75 c -0.1,-0.167 -2.466,-4.167 -7.1,-12 0.033,-0.033 0.083,-0.05 0.15,-0.05 1,-0.434 2.383,-0.884 4.15,-1.351 1.133,-0.333 1.867,-0.683 2.2,-1.05 0.533,-0.633 0.783,-3.6 0.75,-8.9 0.033,0.133 0.333,1.6 0.9,4.4 0.133,0.667 0.2,3.75 0.2,9.25 0,1.101 -0.233,2.367 -0.7,3.8 -0.267,0.733 -0.517,1.4 -0.75,2 0,0.634 0.066,1.834 0.2,3.601 l 0,0.3 z m 8.05,9.9 -2.85,-3.2 c 0,-2 0.117,-3.367 0.35,-4.101 0.467,-0.866 0.9,-1.75 1.3,-2.649 0.133,0.866 0.367,2.616 0.7,5.25 0.367,2.9 0.533,4.467 0.5,4.7 z m 9.4,7.95 c -0.833,-0.466 -1.633,-0.966 -2.4,-1.5 l 0.8,-4.6 c 0.033,0.033 0.233,0.3 0.6,0.8 0.167,0.267 0.3,0.4 0.4,0.4 0.1,1.1 0.3,2.734 0.6,4.9 z M 1.6,24.3 1.3,25.6 1.25,25.65 c 0,-0.2 0.017,-0.417 0.05,-0.65 0.067,-0.433 0.167,-0.667 0.3,-0.7 z m 48.15,31.8 -0.15,-0.5 1,0 0.75,0.7 c 1.3,1.066 2.2,2.834 2.7,5.3 0.3,1.367 0.45,2.733 0.45,4.101 0,1.666 -0.517,3.35 -1.55,5.05 -2.2,3.634 -3.867,6.65 -5,9.05 -0.133,-1.467 -0.2,-2.533 -0.2,-3.2 0,-2.933 0.617,-5.216 1.85,-6.85 1.2,-1.6 1.8,-2.95 1.8,-4.05 0,-3.267 -0.55,-6.468 -1.65,-9.601 z m 10.85,47.05 0.35,-0.65 1.1,-1.25 c -0.167,0.5 -0.466,1.233 -0.9,2.2 l -0.55,-0.3 z m 2.2,-2.5 c 1.4,-4.967 2.45,-7.9 3.15,-8.801 l 0.3,-0.05 0.1,2.101 c 0,1.566 -0.217,2.75 -0.65,3.55 -0.4,0.767 -1.367,1.833 -2.9,3.2 z M 48.55,97.9 45.5,96.8 c 0.167,-0.666 0.183,-2.133 0.05,-4.399 l 0.65,0.8 c 0.7,1.165 1.483,2.733 2.35,4.699 z"
   id="path15"
   inkscape:connector-curvature="0"
   style="fill:#7c7367" />
	<path
   d="M 94.85,65.05 C 94.951,63.884 94.917,62.5 94.75,60.901 94.684,57.668 94.533,55.8 94.3,55.3 90.967,55.366 88.7,55.333 87.5,55.2 L 89.05,55 c 1.233,-0.3 3.767,-0.583 7.601,-0.85 2.1,-0.133 4.066,-0.983 5.899,-2.55 l 0.65,-0.75 c 0.934,-1.2 1.7,-2.833 2.3,-4.9 0.8,-2.833 0.95,-5.784 0.45,-8.85 l 0.95,0.4 0.25,1.1 c 1.533,4.4 2.383,6.833 2.55,7.3 0.366,1.333 0.55,2.733 0.55,4.2 -0.967,7 -1.95,11.5 -2.95,13.5 0.033,-4.533 0,-7.416 -0.1,-8.649 -3.667,-0.567 -6.5,1.1 -8.5,5 -0.601,1.166 -1.517,3.184 -2.75,6.05 -1.267,2.7 -2.634,4.983 -4.101,6.85 0.2,-0.3 0.717,-1.533 1.551,-3.699 0.9,-2.268 1.383,-3.635 1.45,-4.102 z M 129.3,84.2 c 0.867,-1.634 1.867,-3.5 3,-5.601 l 0,1.25 c -0.033,0.601 -0.3,2.284 -0.8,5.051 -0.533,3.066 -0.934,4.866 -1.2,5.399 l 0.95,-0.25 c 3.267,-0.7 5.667,-1.517 7.2,-2.45 1.5,-0.933 2.25,-2.05 2.25,-3.35 -0.066,-1.134 -0.101,-2.15 -0.101,-3.05 -0.033,-1.733 0.067,-3.084 0.301,-4.05 l 0.55,1.199 c 0.267,0.801 0.533,2.217 0.8,4.25 0.333,2.2 0.45,3.7 0.35,4.5 l 0.4,-1.35 c 0.3,-1.333 0.6,-3.233 0.9,-5.7 0.267,-2.066 0.399,-3.233 0.399,-3.5 0,-2.866 -0.2,-4.916 -0.6,-6.149 -0.634,-2.034 -1.117,-4.2 -1.45,-6.5 -0.767,-5.733 -1.2,-8.733 -1.3,-9 -1.101,-3.433 -3.434,-5.2 -7,-5.3 l 0.8,-0.1 c 1.934,-0.6 4.65,-1.533 8.15,-2.8 l 0.649,0.7 c 1.601,1.733 3.084,3.75 4.45,6.05 1.5,2.566 2.25,4.517 2.25,5.85 0,0.667 -0.267,4.9 -0.8,12.7 0,0.667 0.333,4.167 1,10.5 0,1.533 -1.351,3.8 -4.05,6.8 -2.567,2.834 -5.384,5.3 -8.45,7.4 -1.7,1.3 -2.733,2.1 -3.101,2.399 -0.5,0.367 -1.233,0.601 -2.199,0.7 -4.967,0.334 -12.483,1.2 -22.551,2.601 0.601,-0.2 1.134,-0.667 1.601,-1.4 0.6,-1 0.899,-2.184 0.899,-3.55 l 0.15,-1.25 0.5,-4.55 0.15,0.25 c 0.1,0.199 0.716,1.666 1.85,4.399 1.333,2.634 2.566,3.95 3.7,3.95 2.233,0 4.649,-0.35 7.25,-1.05 3.399,-0.9 5.1,-2.066 5.1,-3.5 0,-1.3 -0.434,-2.117 -1.3,-2.45 -0.866,-0.333 -2.717,-0.366 -5.55,-0.1 l 0.2,-0.45 c 0.033,-0.033 0.517,-0.884 1.449,-2.55 0.73,-1.4 1.8,-3.383 3.2,-5.95 z m -18.75,0.05 c 0.033,-0.033 1.283,-1 3.75,-2.9 1.5,-1.133 2.65,-2.166 3.45,-3.1 2.2,-2.7 2.833,-6.15 1.9,-10.35 0.3,-1.2 1.066,-2.634 2.3,-4.301 l 0.1,4.351 c 0.2,2.833 0.233,5.217 0.101,7.149 l -0.101,1.45 -0.1,0.7 -0.05,0.05 -0.051,0.351 -0.15,0.85 c 0,1.767 -0.733,3.283 -2.2,4.55 -1.467,1.233 -3.25,1.851 -5.35,1.851 -0.467,0.133 -1.067,0.216 -1.801,0.25 -0.733,0 -1.3,-0.034 -1.699,-0.101 l -1,-0.35 0.9,-0.45 z M 89.5,105.7 c -2.167,0.434 -4.6,1.35 -7.3,2.75 -1.533,0.767 -3.767,0.916 -6.7,0.45 0.467,-0.301 1.7,-0.733 3.7,-1.301 2,-0.699 3.517,-1.666 4.55,-2.899 0.6,-0.733 1.283,-2.25 2.05,-4.55 1.101,-3.434 1.733,-5.351 1.9,-5.75 l 0.35,0.949 C 88.417,98.55 88.9,102 89.5,105.7 Z m 15.5,-2.65 -6.4,1 0,-0.05 c -0.3,-1.333 -0.449,-2.316 -0.449,-2.95 0,-0.8 0.366,-1.399 1.1,-1.8 1.333,-0.634 2.316,-1.283 2.95,-1.95 2.267,-2.267 4.483,-5.267 6.649,-9 l 0.15,1 c -0.134,2.434 -0.7,5.2 -1.7,8.3 -0.87,2.77 -1.63,4.58 -2.3,5.45 z M 91.25,76.6 l 0,7.1 c -0.233,1.267 -1.066,2.8 -2.5,4.6 -1.767,2.267 -3.566,3.4 -5.4,3.4 -0.133,0 -0.399,-0.134 -0.8,-0.4 -0.533,-0.366 -1,-0.833 -1.399,-1.399 l 0.8,0 c 2.267,0.1 4,-1.101 5.2,-3.601 0.766,-1.567 2.132,-4.8 4.099,-9.7 z m -72.6,-52.7 0.15,0.35 0.15,0.55 c -0.3,0.5 -0.8,0.983 -1.5,1.45 -0.8,0.467 -1.35,0.8 -1.65,1 -0.433,0.3 -0.9,0.583 -1.4,0.85 l -0.6,0.25 0.4,-0.45 c 0.4,-0.667 0.816,-1.633 1.25,-2.9 0.5,-1.367 0.75,-2.367 0.75,-3 l 0.15,-1.5 c 0.1,0.2 0.5,0.733 1.2,1.6 0.567,0.733 0.933,1.333 1.1,1.8 z m 14.9,25.9 c 0.067,-0.3 0.333,-0.983 0.8,-2.05 0.533,-1.267 0.833,-1.983 0.9,-2.15 l 6.35,-4 c -1.6,1.367 -2.95,2.8 -4.05,4.3 -0.433,0.567 -1.167,1.684 -2.2,3.35 -0.133,0.633 -0.35,1.333 -0.65,2.1 -0.4,0.933 -0.75,1.45 -1.05,1.55 l -0.1,-3.1 z M 5.2,44.7 5,44.45 c 0.233,0 0.767,-0.167 1.6,-0.5 0.833,-0.3 1.5,-0.483 2,-0.55 C 8.4,44.067 7.783,45.433 6.75,47.5 6.25,46.3 5.733,45.367 5.2,44.7 Z"
   id="path17"
   inkscape:connector-curvature="0"
   style="fill:#635b52" />
	<path
   d="m 109.1,40 -0.6,-0.35 0.05,-0.55 c 0.17,0.367 0.35,0.667 0.55,0.9 z m 12.95,27.95 c 1.967,-1.2 3.15,-3.55 3.55,-7.05 -2.133,1 -4.083,2.366 -5.85,4.1 -1.1,1.1 -2.517,1.616 -4.25,1.55 0,-0.1 -0.283,-1.083 -0.85,-2.95 -0.601,-1.933 -0.95,-3.166 -1.051,-3.699 -0.233,0.433 -0.933,1.399 -2.1,2.899 -0.233,0.3 -0.45,0.617 -0.65,0.95 0.434,-1.4 0.717,-3.116 0.851,-5.15 0.066,-3.466 0.149,-5.266 0.25,-5.399 0.866,-0.233 1.45,-0.617 1.75,-1.15 0.2,-0.367 0.3,-0.867 0.3,-1.5 0,-2.033 -0.25,-3.483 -0.75,-4.35 -1.134,-1.6 -2.316,-3.517 -3.55,-5.75 2.133,1.466 3.934,3.8 5.399,7 0.934,1.966 3.084,2.95 6.45,2.95 0.767,0 2.184,-0.05 4.25,-0.15 2.533,-0.167 4.467,-0.333 5.8,-0.5 -1.8,0.433 -3.616,0.733 -5.449,0.9 -1.634,0.167 -4.284,0.317 -7.95,0.45 0,0.066 -0.184,0.167 -0.55,0.3 -0.5,0.2 -0.801,0.317 -0.9,0.35 l -0.4,0.2 c 5.801,0.667 8.767,1.017 8.9,1.05 1.9,0.3 3.116,0.8 3.65,1.5 0.433,0.6 0.616,1.85 0.55,3.75 -0.2,4.866 -0.3,7.5 -0.3,7.9 0,0.666 0.316,4.783 0.949,12.35 0,2.033 -0.267,3.934 -0.8,5.7 -1.399,2.566 -2.467,4.55 -3.2,5.95 L 125.9,90.35 c -0.9,1.067 -1.884,1.983 -2.95,2.75 -0.8,0.567 -1.267,0.851 -1.4,0.851 l -0.6,0 c 0,-0.066 -0.017,-0.101 -0.05,-0.101 l -0.3,-0.45 1.45,-8.551 c 0.134,0.967 0.316,1.851 0.55,2.65 l 0.65,0.25 c 0.767,0.033 1.384,-0.35 1.85,-1.15 0.5,-0.866 0.75,-2.083 0.75,-3.649 0,-5.733 -0.283,-9.334 -0.85,-10.8 -1.167,-2.934 -1.75,-4.417 -1.75,-4.45 0,4.8 -0.2,7.399 -0.6,7.8 l -0.051,-1.25 -0.449,0.85 c 0.13,-1.933 0.1,-4.317 -0.1,-7.15 z M 42.5,41.1 c -0.367,0 -0.7,0.017 -1,0.05 l 2.5,-1 0,0.15 -1.5,0.8 z m 28.1,66.7 -4.9,-2.1 c -1.133,-0.5 -2.65,-1.25 -4.55,-2.25 0.434,-0.967 0.733,-1.7 0.9,-2.2 l 0.75,-0.6 c 1.534,-1.367 2.5,-2.434 2.9,-3.2 0.433,-0.8 0.65,-1.983 0.65,-3.55 l -0.1,-2.101 -0.3,0.05 c -0.967,0.834 -1.7,1.983 -2.2,3.45 -0.3,0.967 -0.867,2.95 -1.7,5.95 l -1.1,1.25 c 0.267,-3.333 0.483,-5.884 0.65,-7.65 0.3,-3.267 0.883,-5.366 1.75,-6.3 l 3.65,0.15 c 2.133,0.133 3.467,-0.267 4,-1.2 0.267,-0.467 0.533,-2.566 0.8,-6.3 0.233,-3.8 0.517,-6.017 0.85,-6.65 0.633,-1.267 1.934,-2.416 3.9,-3.45 1.634,-0.833 2.45,-1.75 2.45,-2.75 0,-2.6 -1.167,-5 -3.5,-7.199 -2.433,-1.801 -3.733,-2.851 -3.9,-3.151 0.133,-0.033 1.017,-0.116 2.65,-0.25 1.634,-0.366 2.684,-1.083 3.15,-2.15 l -0.1,-0.75 c -1.866,-3.167 -3.15,-5 -3.85,-5.5 1.367,-0.1 2.283,-0.283 2.75,-0.55 0.733,1.367 2.783,2.95 6.149,4.75 0.301,0.3 0.867,0.45 1.7,0.45 1.834,0 3.066,-0.083 3.7,-0.25 0.5,-0.133 1.517,-0.5 3.05,-1.1 0.9,-0.033 2,-0.133 3.3,-0.3 1.301,-0.167 2.284,-0.35 2.95,-0.55 2.167,-0.1 4.217,-0.417 6.15,-0.95 l -0.65,0.75 c -1.8,0 -4.733,0.5 -8.8,1.5 -4.1,1 -7.033,1.5 -8.8,1.5 -0.667,0.333 -1.084,0.417 -1.25,0.25 -0.601,-0.6 -3.167,-2.017 -7.7,-4.25 0.134,0.1 1.434,1.25 3.9,3.45 2.733,2.334 4.933,3.884 6.6,4.65 0.434,0.2 1.783,0.583 4.05,1.149 2.5,0.601 3.9,0.95 4.2,1.051 0.167,1.6 0.2,2.983 0.1,4.149 -0.166,0.434 -1.333,1.834 -3.5,4.2 -2.033,2.2 -3.199,3.983 -3.5,5.35 -0.066,0.4 -0.316,2.384 -0.75,5.95 -0.699,3.601 -1.8,5.967 -3.3,7.101 C 82.9,87.015 82.183,85.515 81.65,83.149 81.283,81.482 81.066,79.782 81,78.048 l -0.1,-0.899 c -0.4,0.3 -0.801,1.116 -1.2,2.449 -0.5,1.567 -0.75,3.184 -0.75,4.851 0,5.566 0.3,8.717 0.899,9.45 0.301,0.366 0.784,0.517 1.45,0.449 0.434,-0.066 1.233,-0.149 2.4,-0.25 1.434,0 2.149,0.983 2.149,2.95 0,3.267 -0.767,5.483 -2.3,6.65 -1.799,1.43 -6.115,2.8 -12.949,4.1 z M 72.1,46.6 71.7,47 71.45,46.25 c 0.167,0.467 0.383,0.583 0.65,0.35 z m 26.5,57.4 0,0.05 -5.6,0.95 -0.15,-3.55 c 0,-1.934 0.084,-3.267 0.25,-4 0.2,-0.834 1,-3.134 2.4,-6.9 0.3,0.834 0.65,1.434 1.05,1.8 0.566,0.5 1.351,0.75 2.351,0.75 2.033,0 3.083,-1.517 3.149,-4.55 0.566,1.367 0.851,2.434 0.851,3.2 0,2.033 -1.101,3.884 -3.301,5.55 -2.199,1.667 -3.3,2.851 -3.3,3.55 0,0.167 0.184,0.534 0.55,1.101 0.467,0.73 1.051,1.42 1.751,2.05 z m 11.95,-19.75 c -0.633,-5.267 -1.166,-8.8 -1.6,-10.6 -0.267,-1.034 -0.4,-1.834 -0.4,-2.4 l 0.2,-2.05 0.6,3.1 c 0.034,0.134 0.233,1.283 0.601,3.45 0.399,2.2 0.833,3.483 1.3,3.85 0.866,-0.6 1.7,-2.083 2.5,-4.449 0.866,-2.467 1.467,-5.25 1.8,-8.351 0.066,0.066 0.7,0.25 1.9,0.55 1.166,0.334 1.899,0.517 2.2,0.551 0.933,4.199 0.3,7.649 -1.9,10.35 -0.8,0.934 -1.95,1.967 -3.45,3.1 -2.47,1.899 -3.72,2.866 -3.75,2.899 z m 2.2,11.95 -0.15,1.25 -0.45,-2.35 0.6,1.1 z m -3.05,-30 c -0.033,0.133 -0.066,0.25 -0.101,0.35 l -0.149,0 c 0.1,-0.1 0.18,-0.217 0.25,-0.35 z m 11.5,-7.15 c 0.166,0.167 0.366,0.25 0.6,0.25 0.234,0 0.45,-0.083 0.65,-0.25 0.166,-0.2 0.25,-0.416 0.25,-0.649 0,-0.233 -0.084,-0.434 -0.25,-0.601 -0.2,-0.2 -0.417,-0.3 -0.65,-0.3 -0.233,0 -0.434,0.1 -0.6,0.3 -0.2,0.167 -0.3,0.367 -0.3,0.601 0,0.234 0.1,0.449 0.3,0.649 z M 1.25,25.65 1.3,25.6 1.6,24.3 2.15,21.65 c 0,2.733 0.283,4.617 0.85,5.65 l -0.05,0.1 c 0.033,0.033 0.25,0.05 0.65,0.05 0.333,0 1.783,-1.133 4.35,-3.4 0.966,0.867 1.483,1.3 1.55,1.3 1.733,0 2.833,-0.733 3.3,-2.2 0.267,-1.733 0.567,-2.917 0.9,-3.55 l 0.05,1.4 c 0,2.967 -3.05,6.8 -9.15,11.5 L 4.05,33.1 C 4.917,32.7 8.3,30.967 14.2,27.9 l -0.4,0.45 0.6,-0.25 c 0.5,-0.267 0.967,-0.55 1.4,-0.85 0.867,0 1.617,-0.233 2.25,-0.7 0.6,-0.5 0.9,-1.083 0.9,-1.75 L 18.8,24.25 c 0.4,0.433 1.184,1.167 2.35,2.2 1.033,0.9 1.65,1.5 1.85,1.8 -3.133,0.333 -6,0.883 -8.6,1.65 -5.1,1.567 -7.033,3.85 -5.8,6.85 0.533,-0.033 1.6,-0.367 3.2,-1 0.867,-0.333 1.95,-0.783 3.25,-1.35 -0.3,1.167 -1.017,3.567 -2.15,7.2 -0.633,2.066 -0.95,3.45 -0.95,4.15 0,0.733 0.233,1.417 0.7,2.05 0.133,0.2 0.483,0.583 1.05,1.15 l -2.7,3.3 c 1.2,1.267 1.9,2.383 2.1,3.35 0.233,0.967 0.533,1.65 0.9,2.051 l 0.5,-0.2 c 0.433,-1.566 1.167,-3.3 2.2,-5.2 0.566,-1.033 0.85,-2.867 0.85,-5.5 l -0.2,-5.25 0.35,1.3 c 2.1,3.267 3.25,5.034 3.45,5.3 1.4,1.9 2.567,2.85 3.5,2.85 0.467,0 0.917,-0.217 1.35,-0.65 0.733,-0.733 1.1,-1.95 1.1,-3.65 -1,-7.1 -1.5,-11.033 -1.5,-11.8 l 0.35,0.85 c 0.333,0.966 1.2,2.183 2.6,3.65 1.3,1.367 2.367,2.233 3.2,2.6 l 1.7,1.05 0.1,0.1 c 0.333,0.367 0.567,0.733 0.7,1.1 1,-0.534 1.95,-0.983 2.85,-1.35 -0.333,0.233 -0.633,0.5 -0.9,0.8 -1.767,1.7 -2.65,3.75 -2.65,6.15 l 0.1,3.1 c 0.3,-0.1 0.65,-0.617 1.05,-1.55 0.3,-0.767 0.517,-1.467 0.65,-2.1 l 0.15,-0.15 c -0.133,0.433 -0.333,1.183 -0.6,2.25 -0.066,0.133 -0.117,0.267 -0.15,0.4 -0.433,1.1 -0.683,2.333 -0.75,3.7 -0.4,1.8 -0.833,2.899 -1.3,3.3 -0.534,-0.8 -0.85,-1.517 -0.95,-2.15 -0.033,-0.833 -0.083,-1.566 -0.15,-2.2 -1.967,0.7 -3.383,1.534 -4.25,2.5 -0.967,1.1 -1.45,2.583 -1.45,4.449 0,3.467 1.3,6.467 3.9,9 1.7,1.7 3.133,2.7 4.3,3 0.133,-0.066 0.267,-0.1 0.4,-0.1 0.1,-0.066 0.15,-0.3 0.15,-0.7 0,-0.033 0.533,-0.6 1.6,-1.7 1.1,-1.399 1.667,-3.017 1.7,-4.85 0.033,-0.667 0.167,-2.733 0.4,-6.2 l 0.3,0.75 c 0.167,1.967 0.333,4.767 0.5,8.4 0.133,3.2 0.2,5.133 0.2,5.8 l -0.15,3.4 c -2.6,0.033 -4.333,0.333 -5.2,0.899 -0.5,0.3 -0.75,0.733 -0.75,1.3 0,2.767 0.583,4.517 1.75,5.25 0.533,0.301 1.783,0.483 3.75,0.551 1.667,0.033 2.817,0.55 3.45,1.55 0.9,1.434 1.167,4.149 0.8,8.149 -1.6,-0.699 -3.183,-1.449 -4.75,-2.25 -0.3,-2.166 -0.5,-3.8 -0.6,-4.899 -0.1,0 -0.233,-0.134 -0.4,-0.4 -0.367,-0.5 -0.567,-0.767 -0.6,-0.8 l -0.8,4.6 c -0.567,-0.399 -1.1,-0.8 -1.6,-1.199 -0.267,-0.233 -1.117,-1.051 -2.55,-2.45 -1.534,-1.467 -2.483,-2.4 -2.85,-2.8 0.033,-0.233 -0.133,-1.801 -0.5,-4.7 -0.333,-2.634 -0.567,-4.384 -0.7,-5.25 -0.4,0.899 -0.833,1.783 -1.3,2.649 -0.233,0.733 -0.35,2.1 -0.35,4.1 -0.967,-1.167 -2.3,-2.851 -4,-5.05 l -1.2,-1.65 0,-0.3 c -0.133,-1.767 -0.2,-2.967 -0.2,-3.601 0.233,-0.6 0.483,-1.267 0.75,-2 0.467,-1.433 0.7,-2.699 0.7,-3.8 0,-5.5 -0.066,-8.583 -0.2,-9.25 -0.567,-2.8 -0.867,-4.267 -0.9,-4.4 0.033,5.3 -0.217,8.267 -0.75,8.9 -0.333,0.367 -1.067,0.717 -2.2,1.05 -1.767,0.467 -3.15,0.917 -4.15,1.351 -0.067,0 -0.117,0.017 -0.15,0.05 l -1.35,-3.4 c -0.4,-1.233 -1.067,-2.983 -2,-5.25 C 9.283,52.5 8.4,50.567 7.7,49.3 7.367,48.767 7.083,48.25 6.85,47.75 8.15,45.483 8.867,44.25 9,44.05 9.633,42.65 10.083,41.033 10.35,39.2 6.217,41.166 3.683,42.133 2.75,42.1 2.383,41.7 1.867,40.25 1.2,37.75 0.4,34.817 0,32.25 0,30.05 c 0,-1 0.2,-2 0.6,-3 0.4,-0.833 0.617,-1.3 0.65,-1.4 z m 14.2,-6.2 0.9,1.05 -0.15,1.5 c -0.3,-0.833 -0.55,-1.683 -0.75,-2.55 z m 36.9,56.7 c -0.1,0.3 -0.4,0.983 -0.9,2.05 -0.5,1.067 -0.817,1.85 -0.95,2.35 -1.7,3.467 -2.55,5.267 -2.55,5.4 0,0.866 0.066,2.233 0.2,4.1 0.133,2.3 0.283,3.684 0.45,4.15 l 0.05,0.05 c 0.633,0.866 1.65,1.917 3.05,3.15 1.333,1.166 2.683,2.183 4.05,3.05 l 0.65,0.5 0.1,0.1 c -1.033,-0.5 -2.967,-1.283 -5.8,-2.35 L 48.55,97.9 C 47.683,95.933 46.9,94.366 46.2,93.2 l -0.65,-0.8 c 0.133,2.267 0.117,3.733 -0.05,4.399 L 45.1,96.65 c -0.133,-1.733 -0.2,-3.101 -0.2,-4.101 1.033,-3.7 1.55,-6.316 1.55,-7.85 0,-0.334 -0.133,-1.617 -0.4,-3.851 -0.3,-2.267 -0.45,-3.566 -0.45,-3.899 0,-1.134 0.683,-3 2.05,-5.601 1.367,-2.6 2.05,-5.183 2.05,-7.75 0,-0.833 -0.184,-2.267 -0.55,-4.3 C 48.783,57.134 48.6,56 48.6,55.9 l 1.15,0.199 c 1.1,3.134 1.65,6.334 1.65,9.601 0,1.1 -0.6,2.45 -1.8,4.05 -1.233,1.634 -1.85,3.917 -1.85,6.85 0,0.667 0.067,1.733 0.2,3.2 1.133,-2.399 2.8,-5.416 5,-9.05 1.033,-1.7 1.55,-3.384 1.55,-5.05 0,-1.367 -0.15,-2.733 -0.45,-4.101 -0.5,-2.466 -1.4,-4.233 -2.7,-5.3 2.467,0.233 5.217,0.25 8.25,0.05 l 0.15,0 c 2.2,0.601 3.9,0.9 5.1,0.9 l 0.2,0.1 c 0.233,0.167 0.483,0.317 0.75,0.45 0.2,0.134 0.3,0.417 0.3,0.851 0,1.533 -0.633,2.8 -1.9,3.8 -0.233,0.166 -1.65,0.967 -4.25,2.399 -4.367,2.368 -6.9,6.134 -7.6,11.301 z"
   id="path19"
   inkscape:connector-curvature="0"
   style="fill:#898074" />
</g>
<path
   style="fill:#ff6600;fill-opacity:1;stroke:none;stroke-width:0;stroke-miterlimit:4;stroke-dasharray:none;stroke-opacity:1"
   d=""
   id="path5712"
   inkscape:connector-curvature="0" /></svg>